<?xml version="1.0" standalone="no"?>
<!DOCTYPE svg PUBLIC "-//W3C//DTD SVG 20010904//EN"
 "http://www.w3.org/TR/2001/REC-SVG-20010904/DTD/svg10.dtd">
<svg version="1.0" xmlns="http://www.w3.org/2000/svg"
 width="250.000000pt" height="274.000000pt" viewBox="0 0 250.000000 274.000000"
 preserveAspectRatio="xMidYMid meet">

<g transform="translate(0.000000,274.000000) scale(0.100000,-0.100000)"
fill="#000000" stroke="none">
<path d="M2020 2515 c0 -8 5 -24 12 -34 19 -31 -16 -93 -87 -156 l-62 -54 -22
30 c-13 17 -44 39 -69 50 -26 10 -55 23 -64 29 -55 31 -218 -2 -370 -75 -78
-37 -102 -42 -310 -64 -109 -12 -203 -43 -271 -89 -228 -154 -371 -221 -526
-248 -157 -28 -209 -59 -236 -138 l-19 -54 25 -48 c25 -49 31 -55 204 -218
100 -94 190 -162 238 -179 15 -6 17 -13 12 -37 -10 -45 3 -36 15 12 21 75 67
146 106 158 32 11 36 10 69 -26 l35 -37 103 5 c94 5 105 4 115 -13 18 -29 78
-49 147 -49 47 0 68 -5 88 -20 14 -11 29 -20 34 -20 26 0 87 -24 104 -41 18
-18 170 -59 220 -59 11 0 50 -12 85 -26 36 -14 89 -29 118 -33 30 -4 65 -17
81 -29 15 -12 37 -22 48 -22 11 0 34 -16 52 -35 30 -31 33 -32 38 -14 3 11 10
18 16 17 15 -4 71 35 71 50 0 23 20 12 26 -15 10 -44 68 -93 108 -93 27 0 41
-7 64 -36 16 -19 35 -54 43 -77 18 -54 73 -126 128 -168 25 -19 48 -46 52 -62
4 -15 3 -25 -1 -22 -5 3 -11 1 -15 -5 -8 -12 -113 -4 -175 14 -61 18 -79 28
-150 82 -32 24 -75 48 -96 52 -23 5 -38 14 -36 21 1 7 -9 28 -23 46 -27 37
-31 59 -15 101 8 19 7 30 -2 41 -10 12 -13 11 -24 -9 -8 -13 -13 -40 -14 -62
l0 -38 -72 7 c-40 4 -79 12 -86 18 -7 5 -16 7 -19 3 -13 -13 18 -24 88 -30 38
-4 71 -11 74 -17 4 -5 15 -9 25 -9 20 0 44 -39 55 -90 4 -16 11 -32 16 -35 12
-8 12 -42 -1 -50 -15 -9 -50 4 -50 20 0 8 -9 17 -20 20 -25 8 -80 -3 -80 -16
0 -14 -44 -11 -86 7 -31 13 -57 15 -131 10 -61 -5 -93 -4 -98 4 -3 6 -11 8
-16 4 -5 -3 -16 0 -24 6 -8 6 -19 9 -26 5 -8 -5 -9 -1 -5 13 4 13 -2 41 -15
72 -27 62 -37 58 -15 -6 20 -60 20 -64 -4 -64 -11 0 -20 -4 -20 -10 0 -5 9
-10 20 -10 10 0 45 -10 77 -22 50 -18 63 -20 100 -10 61 17 102 15 152 -8 53
-25 71 -25 110 -3 27 16 32 16 45 3 13 -13 14 -34 1 -180 -17 -186 -22 -215
-56 -285 -20 -42 -29 -50 -55 -53 -25 -2 -36 3 -58 32 -15 20 -38 66 -52 103
-13 38 -29 77 -34 88 -13 29 -27 84 -34 130 -12 77 -18 95 -28 95 -11 0 -7
-69 8 -137 6 -30 4 -34 -27 -47 -19 -8 -38 -18 -42 -23 -5 -4 -27 -16 -50 -25
-23 -9 -35 -17 -27 -17 12 -1 19 -19 27 -66 15 -85 41 -137 75 -149 44 -15 73
5 93 63 18 55 39 66 49 26 4 -14 11 -25 16 -25 6 0 10 -7 10 -15 0 -22 41 -55
68 -55 36 0 60 17 82 59 24 49 60 251 60 343 0 67 1 69 28 79 15 5 35 21 44
36 14 23 14 30 2 59 -24 57 -6 51 137 -43 20 -13 81 -40 135 -59 109 -39 186
-46 213 -20 18 18 19 73 3 131 -6 22 -12 83 -12 136 0 76 -6 117 -29 195 -15
55 -35 129 -44 166 -9 38 -32 104 -51 148 -23 52 -38 103 -42 147 -8 77 -12
87 -99 233 -35 58 -68 125 -75 150 -6 25 -16 61 -22 80 -12 41 -97 156 -162
220 -25 24 -46 51 -46 59 0 12 3 11 18 -2 32 -29 127 -67 168 -67 47 0 86 25
109 70 30 58 14 87 -29 55 -12 -9 -41 -15 -70 -15 l-51 1 31 13 c49 21 77 64
71 108 -9 66 -117 198 -117 143z m94 -131 c3 -8 2 -12 -4 -9 -6 3 -10 10 -10
16 0 14 7 11 14 -7z m-81 -26 c-3 -15 -12 -29 -20 -33 -24 -9 -24 -2 0 32 12
17 23 31 24 30 0 -1 -1 -14 -4 -29z m67 -48 c-6 -11 -16 -20 -22 -20 -6 0 -3
9 7 20 10 11 20 20 22 20 2 0 -1 -9 -7 -20z m-490 -4 c0 -20 -16 -36 -35 -36
-26 0 -40 14 -30 30 6 9 65 15 65 6z m-357 -123 c-7 -2 -19 -2 -25 0 -7 3 -2
5 12 5 14 0 19 -2 13 -5z m833 -12 c17 -9 15 -10 -11 -11 -36 0 -75 10 -75 19
0 10 66 4 86 -8z m34 9 c8 -5 11 -10 5 -10 -5 0 -17 5 -25 10 -8 5 -10 10 -5
10 6 0 17 -5 25 -10z m-1292 -46 c26 -7 28 -21 5 -46 -21 -24 -65 -23 -87 1
-17 19 -17 20 11 35 32 17 39 18 71 10z m217 -4 c3 -5 -1 -10 -9 -10 -9 0 -16
5 -16 10 0 6 4 10 9 10 6 0 13 -4 16 -10z m220 -25 c0 -30 -59 -56 -120 -53
-42 3 -50 6 -50 23 0 30 59 56 120 53 42 -3 50 -6 50 -23z m460 0 c22 -5 25
-11 25 -46 0 -58 -14 -79 -54 -79 -60 0 -123 72 -94 107 7 9 21 19 33 23 19 8
31 7 90 -5z m254 -115 c21 -19 24 -50 3 -50 -14 0 -52 40 -52 55 0 21 20 18
49 -5z m-550 -15 c15 -8 31 -73 31 -122 0 -45 25 -83 55 -83 22 0 43 -39 50
-95 8 -61 -9 -94 -41 -77 -10 5 -44 17 -74 27 -72 23 -100 41 -100 65 0 11
-13 34 -29 52 -64 74 -90 168 -58 211 26 37 123 49 166 22z m-781 -7 c-9 -26
-138 -72 -138 -49 0 6 21 22 48 35 50 27 96 34 90 14z m-435 -119 c-8 -8 -16
-8 -30 0 -16 9 -14 10 12 11 21 0 26 -3 18 -11z m325 -11 c16 -16 15 -28 -3
-28 -8 0 -15 2 -15 4 0 2 -3 11 -6 20 -7 19 7 21 24 4z m472 -8 c0 -11 -4 -20
-9 -20 -13 0 -32 26 -24 33 13 14 33 6 33 -13z m-944 -58 c-12 -13 -19 -13
-28 -4 -9 9 -6 18 13 38 24 26 24 26 27 4 2 -13 -3 -30 -12 -38z m882 11 c18
-28 20 -38 10 -44 -18 -12 -66 -11 -89 1 -26 15 -25 54 4 68 37 18 51 13 75
-25z m622 7 c0 -5 -4 -10 -10 -10 -5 0 -10 5 -10 10 0 6 5 10 10 10 6 0 10 -4
10 -10z m-1138 -77 c36 -35 54 -42 44 -18 -9 25 102 19 190 -10 41 -14 97 -25
124 -25 54 0 104 -15 96 -29 -9 -14 16 -211 26 -211 5 0 6 16 2 35 -3 19 -2
41 3 48 13 16 25 93 13 81 -4 -5 -10 -22 -13 -39 -2 -17 -5 -6 -6 27 l-1 56
65 7 c36 4 68 11 71 16 3 5 25 9 48 9 34 0 47 -5 59 -22 28 -43 112 -126 142
-141 41 -20 84 -28 149 -28 56 0 106 -25 106 -53 0 -7 11 -27 25 -46 21 -28
24 -41 20 -88 -2 -30 -8 -58 -13 -61 -16 -10 -34 -51 -23 -51 17 0 40 42 47
88 4 23 9 42 13 42 3 0 19 -18 34 -40 26 -37 45 -46 85 -41 6 1 12 -2 12 -7 0
-5 11 -7 25 -4 49 9 75 -50 38 -90 -9 -10 -13 -21 -10 -25 13 -13 47 40 47 74
0 31 2 33 28 27 75 -19 142 -68 142 -105 0 -10 -14 -33 -31 -51 -17 -18 -29
-26 -26 -17 5 14 2 15 -18 5 -13 -6 -21 -15 -18 -21 2 -5 -3 -1 -11 9 -21 26
-21 29 14 54 16 13 30 30 30 40 0 13 -3 12 -16 -6 -8 -12 -28 -29 -44 -37 -33
-17 -74 -20 -65 -5 3 6 -1 7 -9 4 -9 -3 -16 -1 -16 5 0 6 -7 11 -15 11 -8 0
-15 4 -15 10 0 5 -14 8 -32 6 -32 -3 -65 5 -128 32 -19 9 -59 18 -87 20 -29 2
-53 8 -53 12 0 4 -30 13 -67 20 -38 8 -84 24 -107 40 -23 15 -56 30 -74 33
-18 4 -46 16 -62 29 -23 17 -49 23 -121 28 -83 6 -92 9 -113 34 -24 30 -29 31
-173 10 -29 -4 -43 -2 -43 5 0 6 -5 11 -11 11 -6 0 -19 11 -30 24 -27 34 -102
42 -135 13 -13 -11 -24 -29 -24 -39 0 -10 -4 -18 -8 -18 -5 0 -14 -12 -20 -26
-10 -21 -17 -24 -43 -20 -32 5 -70 26 -104 58 -11 10 -58 55 -104 98 -46 44
-100 90 -118 102 -19 13 -50 51 -70 87 -40 70 -37 80 27 81 19 0 42 4 50 10 8
5 71 8 142 7 l127 -2 33 -32z m1629 1 c20 -10 50 -36 68 -56 28 -32 31 -41 23
-70 -8 -32 -10 -33 -64 -36 -47 -2 -67 2 -117 27 -94 48 -119 88 -90 143 10
18 18 20 78 16 37 -3 82 -13 102 -24z m-271 -58 c0 -2 -7 -9 -15 -16 -12 -10
-15 -10 -15 4 0 9 7 16 15 16 8 0 15 -2 15 -4z m400 -176 c0 -5 -7 -7 -15 -4
-8 4 -15 8 -15 10 0 2 7 4 15 4 8 0 15 -4 15 -10z m-417 -105 c41 -29 47 -45
17 -45 -31 0 -100 38 -100 55 0 23 41 18 83 -10z m437 -88 c49 -24 67 -39 75
-60 8 -24 6 -31 -9 -43 -16 -11 -24 -10 -56 6 -45 23 -100 84 -100 110 0 27
13 25 90 -13z m110 -177 c0 -5 -4 -10 -10 -10 -5 0 -10 5 -10 10 0 6 5 10 10
10 6 0 10 -4 10 -10z m-171 -31 c25 -24 25 -62 -1 -67 -22 -4 -43 15 -51 49
-11 44 15 53 52 18z m291 -197 c0 -85 -27 -108 -51 -45 -7 20 -5 36 12 69 11
24 25 42 30 38 5 -3 9 -31 9 -62z m-505 -292 c3 -5 1 -10 -4 -10 -6 0 -11 5
-11 10 0 6 2 10 4 10 3 0 8 -4 11 -10z m-321 -286 c23 -47 26 -61 17 -81 -6
-13 -11 -33 -11 -43 0 -11 -13 -34 -28 -51 -22 -25 -33 -30 -51 -24 -28 8 -66
89 -76 157 l-7 48 53 25 c30 14 59 25 65 25 6 0 23 -25 38 -56z"/>
<path d="M70 1695 c13 -14 30 -25 38 -25 12 0 9 7 -8 25 -13 14 -30 25 -38 25
-12 0 -9 -7 8 -25z"/>
<path d="M276 1673 c6 -36 40 -113 49 -113 2 0 -5 25 -16 57 -10 31 -19 64
-19 75 0 10 -5 18 -10 18 -7 0 -8 -14 -4 -37z"/>
<path d="M221 1628 c12 -24 37 -69 56 -101 31 -51 39 -71 42 -99 1 -5 9 -8 18
-8 9 0 34 -12 54 -26 63 -43 63 -22 1 23 -55 40 -119 129 -163 226 -7 15 -16
27 -21 27 -5 0 1 -19 13 -42z"/>
<path d="M420 1643 c0 -4 9 -37 20 -73 25 -81 25 -81 -6 -45 l-26 30 15 -30
c8 -16 30 -41 48 -54 37 -28 37 -25 -5 74 -14 33 -26 68 -26 77 0 9 -4 20 -10
23 -5 3 -10 3 -10 -2z"/>
<path d="M707 1634 c-4 -4 -5 -30 -1 -58 4 -38 3 -47 -5 -36 -16 23 -13 8 10
-54 12 -31 26 -56 30 -56 12 0 11 10 -1 46 -5 16 -13 60 -17 97 -5 38 -11 65
-16 61z"/>
<path d="M1119 1585 c-13 -50 -25 -57 -39 -22 -15 37 -10 -5 5 -48 17 -45 20
-111 6 -119 -13 -8 -61 92 -61 126 0 19 -5 28 -16 28 -13 0 -15 -8 -9 -49 8
-60 27 -118 45 -134 10 -10 11 -8 5 8 -4 11 -10 31 -12 45 -4 22 -2 21 12 -6
9 -18 28 -43 42 -55 l25 -24 -6 81 c-5 76 4 138 29 197 4 10 3 17 -4 17 -6 0
-16 -20 -22 -45z"/>
<path d="M590 1606 c0 -8 -5 -16 -11 -18 -15 -5 -4 -67 16 -94 13 -17 14 -12
15 54 0 41 -4 72 -10 72 -5 0 -10 -6 -10 -14z m-3 -58 c-3 -8 -6 -5 -6 6 -1
11 2 17 5 13 3 -3 4 -12 1 -19z"/>
<path d="M210 1553 c0 -12 88 -109 93 -103 3 3 -17 29 -44 58 -27 29 -49 49
-49 45z"/>
<path d="M792 1530 c0 -19 2 -27 5 -17 2 9 2 25 0 35 -3 9 -5 1 -5 -18z"/>
<path d="M831 1518 c0 -20 -6 -38 -13 -40 -16 -6 -3 -50 22 -79 l21 -24 -7 35
c-4 19 -10 60 -14 90 -6 44 -8 48 -9 18z"/>
<path d="M1203 1449 c-13 -53 -27 -78 -39 -67 -3 3 2 20 11 38 9 17 14 37 12
43 -2 7 -16 -12 -31 -41 -31 -62 -26 -81 14 -52 30 22 54 75 48 111 -2 14 -8
2 -15 -32z"/>
<path d="M1325 1401 c-4 -13 -25 -44 -47 -67 -46 -49 -43 -56 7 -19 34 27 60
74 53 97 -3 8 -8 3 -13 -11z"/>
<path d="M1431 1392 c-13 -16 -47 -42 -77 -58 -30 -16 -54 -33 -54 -37 0 -5
21 -5 48 -1 50 7 68 14 36 14 -14 0 -7 11 30 43 27 24 47 49 45 55 -2 7 -14 1
-28 -16z"/>
<path d="M1261 1373 c-1 -7 -8 -13 -16 -13 -9 0 -15 -9 -15 -22 l0 -22 21 21
c12 11 19 27 16 34 -4 10 -6 10 -6 2z"/>
<path d="M1435 1253 c-16 -26 -31 -50 -33 -55 -3 -6 55 18 67 29 8 6 10 73 3
73 -4 -1 -20 -22 -37 -47z"/>
<path d="M1721 1151 c-16 -12 -20 -20 -12 -25 18 -12 47 2 48 24 2 25 -5 25
-36 1z"/>
<path d="M1862 1124 c-7 -8 -8 -14 -3 -14 10 0 25 19 20 25 -2 1 -10 -3 -17
-11z"/>
<path d="M452 1169 c-14 -35 -24 -202 -14 -217 6 -8 9 17 10 65 0 43 5 99 11
123 11 49 7 66 -7 29z"/>
<path d="M777 1119 c-23 -17 -47 -71 -47 -106 0 -6 12 -25 26 -42 34 -41 75
-42 115 -2 74 74 -14 214 -94 150z m53 -49 c0 -5 -7 -10 -15 -10 -8 0 -15 5
-15 10 0 6 7 10 15 10 8 0 15 -4 15 -10z m23 -57 c-4 -10 -11 -21 -17 -25 -18
-12 -26 2 -13 22 15 25 39 27 30 3z"/>
<path d="M487 1102 c-33 -35 -35 -79 -6 -116 46 -58 93 -54 124 10 19 40 15
69 -16 107 -28 36 -67 36 -102 -1z m63 -32 c0 -5 -7 -10 -15 -10 -8 0 -15 5
-15 10 0 6 7 10 15 10 8 0 15 -4 15 -10z m-10 -72 c0 -5 -4 -8 -8 -8 -15 0
-32 24 -32 45 0 19 2 18 20 -5 11 -14 20 -28 20 -32z"/>
<path d="M1935 949 c-4 -6 1 -19 11 -30 18 -20 44 -26 44 -9 0 6 20 10 44 10
25 0 47 4 50 8 3 5 -17 7 -44 4 -35 -3 -57 0 -74 12 -17 10 -27 12 -31 5z"/>
<path d="M430 887 c-22 -77 -43 -132 -51 -141 -14 -16 -10 -46 5 -46 8 0 16 6
19 13 3 9 9 7 24 -5 10 -10 34 -21 51 -24 18 -4 32 -11 32 -16 0 -14 -60 -1
-80 17 -19 17 -30 19 -30 6 0 -6 27 -20 60 -32 l60 -22 0 -177 c0 -97 3 -180
8 -184 4 -4 8 -20 8 -34 3 -42 25 -115 42 -134 9 -11 29 -18 48 -18 43 0 66
33 94 131 12 41 26 90 32 109 14 49 21 53 50 30 18 -13 28 -34 33 -63 21 -134
62 -207 117 -207 57 0 108 56 122 133 l7 37 84 0 c50 0 87 4 91 11 3 6 19 9
34 6 16 -4 47 2 76 14 28 11 36 17 19 13 -96 -21 -270 -30 -279 -15 -3 4 1 61
9 127 8 65 14 136 14 159 l-2 40 -7 -45 c-64 -374 -83 -436 -138 -459 -27 -11
-34 -11 -56 6 -59 44 -83 147 -88 391 -2 111 -6 139 -15 127 -6 -10 -9 -39 -7
-73 2 -31 1 -85 -3 -120 l-8 -63 -49 32 c-90 60 -216 207 -216 253 0 21 33 29
75 17 41 -11 47 0 10 17 -31 14 -77 16 -91 2 -6 -6 -24 -4 -49 6 -22 8 -48 17
-57 21 -21 6 -22 24 -5 78 26 84 31 88 105 81 96 -9 93 -9 144 -1 35 6 56 3
82 -9 37 -17 159 -29 206 -19 46 9 26 21 -27 16 -26 -3 -75 0 -108 7 -33 6
-80 15 -105 19 -25 5 -54 5 -66 1 -20 -8 -181 11 -201 23 -6 4 -16 -12 -23
-36z m252 -439 c68 -65 68 -62 30 -210 -29 -115 -55 -148 -103 -130 -38 15
-60 114 -67 299 -2 83 -2 159 2 168 5 14 13 9 42 -27 19 -23 62 -69 96 -100z"/>
<path d="M2126 884 c-34 -23 -46 -26 -107 -22 -44 2 -68 0 -66 -7 5 -13 55
-41 87 -49 18 -4 16 -2 -7 9 -45 21 -41 29 11 22 44 -6 65 3 115 51 25 24 5
22 -33 -4z"/>
<path d="M1155 880 c-3 -5 1 -10 9 -10 8 0 18 5 21 10 3 6 -1 10 -9 10 -8 0
-18 -4 -21 -10z"/>
<path d="M1200 881 c0 -16 32 -20 219 -24 149 -3 174 -6 183 -20 10 -20 73
-24 84 -6 5 8 0 10 -17 6 -16 -4 -37 1 -59 15 -32 19 -52 21 -212 24 -97 1
-182 5 -187 9 -6 3 -11 2 -11 -4z"/>
<path d="M1050 870 c-20 -7 -16 -8 22 -9 26 -1 50 4 53 9 7 12 -38 12 -75 0z"/>
<path d="M711 846 c-2 -18 23 -86 31 -86 4 0 8 3 7 8 -1 13 -37 87 -38 78z"/>
<path d="M512 800 c0 -14 2 -19 5 -12 2 6 2 18 0 25 -3 6 -5 1 -5 -13z"/>
<path d="M1255 789 c4 -13 16 -44 27 -67 19 -42 19 -44 1 -58 -24 -18 -93 -18
-120 1 -12 9 -26 15 -30 14 -4 -1 -16 1 -26 6 -10 4 -23 2 -31 -4 -8 -7 -27
-10 -43 -7 -15 2 -31 5 -34 5 -3 1 -6 7 -6 14 0 23 -35 107 -45 107 -11 0 -4
-27 23 -89 10 -24 19 -45 19 -47 0 -2 -29 -4 -65 -4 -37 0 -65 4 -65 10 0 5
-3 9 -7 8 -5 -1 -25 6 -45 14 -45 20 -76 24 -105 14 -39 -13 -25 -24 22 -19
33 4 56 0 90 -16 65 -30 97 -35 152 -22 81 19 168 19 190 -1 25 -23 92 -23
132 0 17 9 31 20 31 25 0 4 12 7 26 7 14 0 23 4 19 10 -3 6 -16 10 -29 10 -17
0 -28 12 -46 51 -26 54 -47 77 -35 38z"/>
<path d="M1988 780 c18 -17 40 -30 49 -30 10 0 26 -11 38 -25 22 -28 95 -46
174 -44 30 1 36 3 16 6 -49 5 -175 35 -179 42 -2 3 28 6 67 5 43 0 51 1 22 3
-73 5 -88 16 -31 22 27 4 51 12 54 18 4 15 -48 8 -90 -12 -23 -11 -33 -9 -85
16 -73 36 -76 36 -35 -1z"/>
<path d="M1080 793 c0 -5 9 -19 20 -33 13 -16 20 -20 19 -10 0 8 -6 23 -13 33
-14 18 -26 22 -26 10z"/>
<path d="M860 759 c0 -16 4 -28 9 -25 8 5 3 56 -5 56 -2 0 -4 -14 -4 -31z"/>
<path d="M1690 745 c0 -19 5 -35 10 -35 6 0 10 16 10 35 0 19 -4 35 -10 35 -5
0 -10 -16 -10 -35z"/>
<path d="M1540 759 c0 -15 33 -69 42 -69 11 0 10 5 -9 45 -16 34 -33 46 -33
24z"/>
<path d="M1801 745 c0 -16 3 -37 9 -45 15 -24 17 -7 4 35 -12 38 -12 38 -13
10z"/>
<path d="M2143 673 c10 -15 133 -61 182 -67 l40 -6 -45 14 c-39 12 -95 33
-164 61 -13 6 -17 5 -13 -2z"/>
</g>
</svg>
